<?xml version="1.0" encoding="utf-8" ?><svg xmlns="http://www.w3.org/2000/svg" xmlns:xlink="http://www.w3.org/1999/xlink" width="388" height="399" viewBox="0 0 388 399"><clipPath id="cl_3"><rect width="388" height="399"/></clipPath><g clip-path="url(#cl_3)"><path fill="white" transform="translate(-320 -298)" d="M418.486 478.7C450.877 476.613 483.671 497.25 498.202 525.866C500.875 530.957 502.831 536.929 504.826 542.267C530.933 612.116 622.424 636.645 656.42 558.392C659.13 552.154 659.818 543.564 666.837 541.368C671.718 539.841 676.561 537.988 681.347 536.201C676.285 575.065 657.578 606.815 630.65 634.434C602.888 661.242 566.865 677.857 528.451 681.573C483.78 686.08 439.16 672.556 404.508 644.007C376.237 620.415 359.06 595.213 348.379 559.636C341.187 535.679 341.99 528.791 358.726 508.338C374.705 488.808 393.533 480.758 418.486 478.7Z"/><path fill="white" transform="translate(-320 -298)" d="M346.42 466.494C349.529 456.159 353.465 445.448 358.486 435.919C383.328 388.773 433.506 351.34 486.537 343.786C531.164 336.974 576.663 348.255 612.939 375.126C645.539 399.651 673.453 438.341 679.271 479.334C678.44 481.549 677.785 482.762 676.7 484.8C666.731 503.51 647.945 520.36 627 525.875C589.53 535.741 553.351 518.718 533.3 486.102C528.039 477.975 525.447 468.296 521.912 459.433C506.717 421.337 463.307 395.003 422.637 407.468C407.686 412.05 390.494 422.522 382.799 436.551L382.481 437.053C375.39 448.434 373.461 459.784 359.345 464.663C354.614 466.053 351.312 466.15 346.42 466.494Z"/></g></svg>